# xmcd
#
# Track frame offsets:
#	150
#	19427
#	39924
#	60924
#	82990
#	109556
#	132329
#	149226
#	165054
#	186413
#	206270
#
# Disc length: 3117 seconds
#
# Revision: 0
# Processed by: cddbd v1.5.1PL0 Copyright (c) Steve Scherf et al.
# Submitted via: dBpowerAMP V4.0
#
DISCID=8c0c2b0b
DTITLE=One Foundation - Lovin' Times
DYEAR=1900
DGENRE=Folk-Rock
TTITLE0=Weeping In My Joy
TTITLE1=Brand New Love
TTITLE2=How Can I Ever Stop Loving You
TTITLE3=Lovin' Times
TTITLE4=Within You Love
TTITLE5=Paradise
TTITLE6=Fire In My Heart
TTITLE7=The Need For Love
TTITLE8=You Saved Me
TTITLE9=Message Of The Heart
TTITLE10=Loving Is Where We Start
EXTD=
EXTT0=
EXTT1=
EXTT2=
EXTT3=
EXTT4=
EXTT5=
EXTT6=
EXTT7=
EXTT8=
EXTT9=
EXTT10=
PLAYORDER=
